<svg width="172" height="172" viewBox="0 0 172 172" fill="none" xmlns="http://www.w3.org/2000/svg">
<g opacity="0.2">
<path d="M6.7451 3.37255C6.7451 5.23516 5.23516 6.7451 3.37255 6.7451C1.50994 6.7451 0 5.23516 0 3.37255C0 1.50994 1.50994 0 3.37255 0C5.23516 0 6.7451 1.50994 6.7451 3.37255Z" fill="white"/>
<path d="M6.7451 97.8039C6.7451 99.6665 5.23516 101.176 3.37255 101.176C1.50994 101.176 0 99.6665 0 97.8039C0 95.9413 1.50994 94.4314 3.37255 94.4314C5.23516 94.4314 6.7451 95.9413 6.7451 97.8039Z" fill="white"/>
<path d="M6.7451 50.5882C6.7451 52.4508 5.23516 53.9608 3.37255 53.9608C1.50994 53.9608 0 52.4508 0 50.5882C0 48.7256 1.50994 47.2157 3.37255 47.2157C5.23516 47.2157 6.7451 48.7256 6.7451 50.5882Z" fill="white"/>
<path d="M6.7451 145.02C6.7451 146.882 5.23516 148.392 3.37255 148.392C1.50994 148.392 0 146.882 0 145.02C0 143.157 1.50994 141.647 3.37255 141.647C5.23516 141.647 6.7451 143.157 6.7451 145.02Z" fill="white"/>
<path d="M6.7451 26.9804C6.7451 28.843 5.23516 30.3529 3.37255 30.3529C1.50994 30.3529 0 28.843 0 26.9804C0 25.1178 1.50994 23.6078 3.37255 23.6078C5.23516 23.6078 6.7451 25.1178 6.7451 26.9804Z" fill="white"/>
<path d="M6.7451 121.412C6.7451 123.274 5.23516 124.784 3.37255 124.784C1.50994 124.784 0 123.274 0 121.412C0 119.549 1.50994 118.039 3.37255 118.039C5.23516 118.039 6.7451 119.549 6.7451 121.412Z" fill="white"/>
<path d="M6.7451 74.1961C6.7451 76.0587 5.23516 77.5686 3.37255 77.5686C1.50994 77.5686 0 76.0587 0 74.1961C0 72.3335 1.50994 70.8235 3.37255 70.8235C5.23516 70.8235 6.7451 72.3335 6.7451 74.1961Z" fill="white"/>
<path d="M6.7451 168.627C6.7451 170.49 5.23516 172 3.37255 172C1.50994 172 0 170.49 0 168.627C0 166.765 1.50994 165.255 3.37255 165.255C5.23516 165.255 6.7451 166.765 6.7451 168.627Z" fill="white"/>
<path d="M101.176 3.37255C101.176 5.23516 99.6665 6.7451 97.8039 6.7451C95.9413 6.7451 94.4314 5.23516 94.4314 3.37255C94.4314 1.50994 95.9413 0 97.8039 0C99.6665 0 101.176 1.50994 101.176 3.37255Z" fill="white"/>
<path d="M101.176 97.8039C101.176 99.6665 99.6665 101.176 97.8039 101.176C95.9413 101.176 94.4314 99.6665 94.4314 97.8039C94.4314 95.9413 95.9413 94.4314 97.8039 94.4314C99.6665 94.4314 101.176 95.9413 101.176 97.8039Z" fill="white"/>
<path d="M101.176 50.5882C101.176 52.4508 99.6665 53.9608 97.8039 53.9608C95.9413 53.9608 94.4314 52.4508 94.4314 50.5882C94.4314 48.7256 95.9413 47.2157 97.8039 47.2157C99.6665 47.2157 101.176 48.7256 101.176 50.5882Z" fill="white"/>
<path d="M101.176 145.02C101.176 146.882 99.6665 148.392 97.8039 148.392C95.9413 148.392 94.4314 146.882 94.4314 145.02C94.4314 143.157 95.9413 141.647 97.8039 141.647C99.6665 141.647 101.176 143.157 101.176 145.02Z" fill="white"/>
<path d="M101.176 26.9804C101.176 28.843 99.6665 30.3529 97.8039 30.3529C95.9413 30.3529 94.4314 28.843 94.4314 26.9804C94.4314 25.1178 95.9413 23.6078 97.8039 23.6078C99.6665 23.6078 101.176 25.1178 101.176 26.9804Z" fill="white"/>
<path d="M101.176 121.412C101.176 123.274 99.6665 124.784 97.8039 124.784C95.9413 124.784 94.4314 123.274 94.4314 121.412C94.4314 119.549 95.9413 118.039 97.8039 118.039C99.6665 118.039 101.176 119.549 101.176 121.412Z" fill="white"/>
<path d="M101.176 74.1961C101.176 76.0587 99.6665 77.5686 97.8039 77.5686C95.9413 77.5686 94.4314 76.0587 94.4314 74.1961C94.4314 72.3335 95.9413 70.8235 97.8039 70.8235C99.6665 70.8235 101.176 72.3335 101.176 74.1961Z" fill="white"/>
<path d="M101.176 168.627C101.176 170.49 99.6665 172 97.8039 172C95.9413 172 94.4314 170.49 94.4314 168.627C94.4314 166.765 95.9413 165.255 97.8039 165.255C99.6665 165.255 101.176 166.765 101.176 168.627Z" fill="white"/>
<path d="M53.9608 3.37255C53.9608 5.23516 52.4508 6.7451 50.5882 6.7451C48.7256 6.7451 47.2157 5.23516 47.2157 3.37255C47.2157 1.50994 48.7256 0 50.5882 0C52.4508 0 53.9608 1.50994 53.9608 3.37255Z" fill="white"/>
<path d="M53.9608 97.8039C53.9608 99.6665 52.4508 101.176 50.5882 101.176C48.7256 101.176 47.2157 99.6665 47.2157 97.8039C47.2157 95.9413 48.7256 94.4314 50.5882 94.4314C52.4508 94.4314 53.9608 95.9413 53.9608 97.8039Z" fill="white"/>
<path d="M53.9608 50.5882C53.9608 52.4508 52.4508 53.9608 50.5882 53.9608C48.7256 53.9608 47.2157 52.4508 47.2157 50.5882C47.2157 48.7256 48.7256 47.2157 50.5882 47.2157C52.4508 47.2157 53.9608 48.7256 53.9608 50.5882Z" fill="white"/>
<path d="M53.9608 145.02C53.9608 146.882 52.4508 148.392 50.5882 148.392C48.7256 148.392 47.2157 146.882 47.2157 145.02C47.2157 143.157 48.7256 141.647 50.5882 141.647C52.4508 141.647 53.9608 143.157 53.9608 145.02Z" fill="white"/>
<path d="M53.9608 26.9804C53.9608 28.843 52.4508 30.3529 50.5882 30.3529C48.7256 30.3529 47.2157 28.843 47.2157 26.9804C47.2157 25.1178 48.7256 23.6078 50.5882 23.6078C52.4508 23.6078 53.9608 25.1178 53.9608 26.9804Z" fill="white"/>
<path d="M53.9608 121.412C53.9608 123.274 52.4508 124.784 50.5882 124.784C48.7256 124.784 47.2157 123.274 47.2157 121.412C47.2157 119.549 48.7256 118.039 50.5882 118.039C52.4508 118.039 53.9608 119.549 53.9608 121.412Z" fill="white"/>
<path d="M53.9608 74.1961C53.9608 76.0587 52.4508 77.5686 50.5882 77.5686C48.7256 77.5686 47.2157 76.0587 47.2157 74.1961C47.2157 72.3335 48.7256 70.8235 50.5882 70.8235C52.4508 70.8235 53.9608 72.3335 53.9608 74.1961Z" fill="white"/>
<path d="M53.9608 168.627C53.9608 170.49 52.4508 172 50.5882 172C48.7256 172 47.2157 170.49 47.2157 168.627C47.2157 166.765 48.7256 165.255 50.5882 165.255C52.4508 165.255 53.9608 166.765 53.9608 168.627Z" fill="white"/>
<path d="M148.392 3.37255C148.392 5.23516 146.882 6.7451 145.02 6.7451C143.157 6.7451 141.647 5.23516 141.647 3.37255C141.647 1.50994 143.157 0 145.02 0C146.882 0 148.392 1.50994 148.392 3.37255Z" fill="white"/>
<path d="M148.392 97.8039C148.392 99.6665 146.882 101.176 145.02 101.176C143.157 101.176 141.647 99.6665 141.647 97.8039C141.647 95.9413 143.157 94.4314 145.02 94.4314C146.882 94.4314 148.392 95.9413 148.392 97.8039Z" fill="white"/>
<path d="M148.392 50.5882C148.392 52.4508 146.882 53.9608 145.02 53.9608C143.157 53.9608 141.647 52.4508 141.647 50.5882C141.647 48.7256 143.157 47.2157 145.02 47.2157C146.882 47.2157 148.392 48.7256 148.392 50.5882Z" fill="white"/>
<path d="M148.392 145.02C148.392 146.882 146.882 148.392 145.02 148.392C143.157 148.392 141.647 146.882 141.647 145.02C141.647 143.157 143.157 141.647 145.02 141.647C146.882 141.647 148.392 143.157 148.392 145.02Z" fill="white"/>
<path d="M148.392 26.9804C148.392 28.843 146.882 30.3529 145.02 30.3529C143.157 30.3529 141.647 28.843 141.647 26.9804C141.647 25.1178 143.157 23.6078 145.02 23.6078C146.882 23.6078 148.392 25.1178 148.392 26.9804Z" fill="white"/>
<path d="M148.392 121.412C148.392 123.274 146.882 124.784 145.02 124.784C143.157 124.784 141.647 123.274 141.647 121.412C141.647 119.549 143.157 118.039 145.02 118.039C146.882 118.039 148.392 119.549 148.392 121.412Z" fill="white"/>
<path d="M148.392 74.1961C148.392 76.0587 146.882 77.5686 145.02 77.5686C143.157 77.5686 141.647 76.0587 141.647 74.1961C141.647 72.3335 143.157 70.8235 145.02 70.8235C146.882 70.8235 148.392 72.3335 148.392 74.1961Z" fill="white"/>
<path d="M148.392 168.627C148.392 170.49 146.882 172 145.02 172C143.157 172 141.647 170.49 141.647 168.627C141.647 166.765 143.157 165.255 145.02 165.255C146.882 165.255 148.392 166.765 148.392 168.627Z" fill="white"/>
<path d="M30.3529 3.37255C30.3529 5.23516 28.843 6.7451 26.9804 6.7451C25.1178 6.7451 23.6078 5.23516 23.6078 3.37255C23.6078 1.50994 25.1178 0 26.9804 0C28.843 0 30.3529 1.50994 30.3529 3.37255Z" fill="white"/>
<path d="M30.3529 97.8039C30.3529 99.6665 28.843 101.176 26.9804 101.176C25.1178 101.176 23.6078 99.6665 23.6078 97.8039C23.6078 95.9413 25.1178 94.4314 26.9804 94.4314C28.843 94.4314 30.3529 95.9413 30.3529 97.8039Z" fill="white"/>
<path d="M30.3529 50.5882C30.3529 52.4508 28.843 53.9608 26.9804 53.9608C25.1178 53.9608 23.6078 52.4508 23.6078 50.5882C23.6078 48.7256 25.1178 47.2157 26.9804 47.2157C28.843 47.2157 30.3529 48.7256 30.3529 50.5882Z" fill="white"/>
<path d="M30.3529 145.02C30.3529 146.882 28.843 148.392 26.9804 148.392C25.1178 148.392 23.6078 146.882 23.6078 145.02C23.6078 143.157 25.1178 141.647 26.9804 141.647C28.843 141.647 30.3529 143.157 30.3529 145.02Z" fill="white"/>
<path d="M30.3529 26.9804C30.3529 28.843 28.843 30.3529 26.9804 30.3529C25.1178 30.3529 23.6078 28.843 23.6078 26.9804C23.6078 25.1178 25.1178 23.6078 26.9804 23.6078C28.843 23.6078 30.3529 25.1178 30.3529 26.9804Z" fill="white"/>
<path d="M30.3529 121.412C30.3529 123.274 28.843 124.784 26.9804 124.784C25.1178 124.784 23.6078 123.274 23.6078 121.412C23.6078 119.549 25.1178 118.039 26.9804 118.039C28.843 118.039 30.3529 119.549 30.3529 121.412Z" fill="white"/>
<path d="M30.3529 74.1961C30.3529 76.0587 28.843 77.5686 26.9804 77.5686C25.1178 77.5686 23.6078 76.0587 23.6078 74.1961C23.6078 72.3335 25.1178 70.8235 26.9804 70.8235C28.843 70.8235 30.3529 72.3335 30.3529 74.1961Z" fill="white"/>
<path d="M30.3529 168.627C30.3529 170.49 28.843 172 26.9804 172C25.1178 172 23.6078 170.49 23.6078 168.627C23.6078 166.765 25.1178 165.255 26.9804 165.255C28.843 165.255 30.3529 166.765 30.3529 168.627Z" fill="white"/>
<path d="M124.784 3.37255C124.784 5.23516 123.274 6.7451 121.412 6.7451C119.549 6.7451 118.039 5.23516 118.039 3.37255C118.039 1.50994 119.549 0 121.412 0C123.274 0 124.784 1.50994 124.784 3.37255Z" fill="white"/>
<path d="M124.784 97.8039C124.784 99.6665 123.274 101.176 121.412 101.176C119.549 101.176 118.039 99.6665 118.039 97.8039C118.039 95.9413 119.549 94.4314 121.412 94.4314C123.274 94.4314 124.784 95.9413 124.784 97.8039Z" fill="white"/>
<path d="M124.784 50.5882C124.784 52.4508 123.274 53.9608 121.412 53.9608C119.549 53.9608 118.039 52.4508 118.039 50.5882C118.039 48.7256 119.549 47.2157 121.412 47.2157C123.274 47.2157 124.784 48.7256 124.784 50.5882Z" fill="white"/>
<path d="M124.784 145.02C124.784 146.882 123.274 148.392 121.412 148.392C119.549 148.392 118.039 146.882 118.039 145.02C118.039 143.157 119.549 141.647 121.412 141.647C123.274 141.647 124.784 143.157 124.784 145.02Z" fill="white"/>
<path d="M124.784 26.9804C124.784 28.843 123.274 30.3529 121.412 30.3529C119.549 30.3529 118.039 28.843 118.039 26.9804C118.039 25.1178 119.549 23.6078 121.412 23.6078C123.274 23.6078 124.784 25.1178 124.784 26.9804Z" fill="white"/>
<path d="M124.784 121.412C124.784 123.274 123.274 124.784 121.412 124.784C119.549 124.784 118.039 123.274 118.039 121.412C118.039 119.549 119.549 118.039 121.412 118.039C123.274 118.039 124.784 119.549 124.784 121.412Z" fill="white"/>
<path d="M124.784 74.1961C124.784 76.0587 123.274 77.5686 121.412 77.5686C119.549 77.5686 118.039 76.0587 118.039 74.1961C118.039 72.3335 119.549 70.8235 121.412 70.8235C123.274 70.8235 124.784 72.3335 124.784 74.1961Z" fill="white"/>
<path d="M124.784 168.627C124.784 170.49 123.274 172 121.412 172C119.549 172 118.039 170.49 118.039 168.627C118.039 166.765 119.549 165.255 121.412 165.255C123.274 165.255 124.784 166.765 124.784 168.627Z" fill="white"/>
<path d="M77.5686 3.37255C77.5686 5.23516 76.0587 6.7451 74.1961 6.7451C72.3335 6.7451 70.8235 5.23516 70.8235 3.37255C70.8235 1.50994 72.3335 0 74.1961 0C76.0587 0 77.5686 1.50994 77.5686 3.37255Z" fill="white"/>
<path d="M77.5686 97.8039C77.5686 99.6665 76.0587 101.176 74.1961 101.176C72.3335 101.176 70.8235 99.6665 70.8235 97.8039C70.8235 95.9413 72.3335 94.4314 74.1961 94.4314C76.0587 94.4314 77.5686 95.9413 77.5686 97.8039Z" fill="white"/>
<path d="M77.5686 50.5882C77.5686 52.4508 76.0587 53.9608 74.1961 53.9608C72.3335 53.9608 70.8235 52.4508 70.8235 50.5882C70.8235 48.7256 72.3335 47.2157 74.1961 47.2157C76.0587 47.2157 77.5686 48.7256 77.5686 50.5882Z" fill="white"/>
<path d="M77.5686 145.02C77.5686 146.882 76.0587 148.392 74.1961 148.392C72.3335 148.392 70.8235 146.882 70.8235 145.02C70.8235 143.157 72.3335 141.647 74.1961 141.647C76.0587 141.647 77.5686 143.157 77.5686 145.02Z" fill="white"/>
<path d="M77.5686 26.9804C77.5686 28.843 76.0587 30.3529 74.1961 30.3529C72.3335 30.3529 70.8235 28.843 70.8235 26.9804C70.8235 25.1178 72.3335 23.6078 74.1961 23.6078C76.0587 23.6078 77.5686 25.1178 77.5686 26.9804Z" fill="white"/>
<path d="M77.5686 121.412C77.5686 123.274 76.0587 124.784 74.1961 124.784C72.3335 124.784 70.8235 123.274 70.8235 121.412C70.8235 119.549 72.3335 118.039 74.1961 118.039C76.0587 118.039 77.5686 119.549 77.5686 121.412Z" fill="white"/>
<path d="M77.5686 74.1961C77.5686 76.0587 76.0587 77.5686 74.1961 77.5686C72.3335 77.5686 70.8235 76.0587 70.8235 74.1961C70.8235 72.3335 72.3335 70.8235 74.1961 70.8235C76.0587 70.8235 77.5686 72.3335 77.5686 74.1961Z" fill="white"/>
<path d="M77.5686 168.627C77.5686 170.49 76.0587 172 74.1961 172C72.3335 172 70.8235 170.49 70.8235 168.627C70.8235 166.765 72.3335 165.255 74.1961 165.255C76.0587 165.255 77.5686 166.765 77.5686 168.627Z" fill="white"/>
<path d="M172 3.37255C172 5.23516 170.49 6.7451 168.627 6.7451C166.765 6.7451 165.255 5.23516 165.255 3.37255C165.255 1.50994 166.765 0 168.627 0C170.49 0 172 1.50994 172 3.37255Z" fill="white"/>
<path d="M172 97.8039C172 99.6665 170.49 101.176 168.627 101.176C166.765 101.176 165.255 99.6665 165.255 97.8039C165.255 95.9413 166.765 94.4314 168.627 94.4314C170.49 94.4314 172 95.9413 172 97.8039Z" fill="white"/>
<path d="M172 50.5882C172 52.4508 170.49 53.9608 168.627 53.9608C166.765 53.9608 165.255 52.4508 165.255 50.5882C165.255 48.7256 166.765 47.2157 168.627 47.2157C170.49 47.2157 172 48.7256 172 50.5882Z" fill="white"/>
<path d="M172 145.02C172 146.882 170.49 148.392 168.627 148.392C166.765 148.392 165.255 146.882 165.255 145.02C165.255 143.157 166.765 141.647 168.627 141.647C170.49 141.647 172 143.157 172 145.02Z" fill="white"/>
<path d="M172 26.9804C172 28.843 170.49 30.3529 168.627 30.3529C166.765 30.3529 165.255 28.843 165.255 26.9804C165.255 25.1178 166.765 23.6078 168.627 23.6078C170.49 23.6078 172 25.1178 172 26.9804Z" fill="white"/>
<path d="M172 121.412C172 123.274 170.49 124.784 168.627 124.784C166.765 124.784 165.255 123.274 165.255 121.412C165.255 119.549 166.765 118.039 168.627 118.039C170.49 118.039 172 119.549 172 121.412Z" fill="white"/>
<path d="M172 74.1961C172 76.0587 170.49 77.5686 168.627 77.5686C166.765 77.5686 165.255 76.0587 165.255 74.1961C165.255 72.3335 166.765 70.8235 168.627 70.8235C170.49 70.8235 172 72.3335 172 74.1961Z" fill="white"/>
<path d="M172 168.627C172 170.49 170.49 172 168.627 172C166.765 172 165.255 170.49 165.255 168.627C165.255 166.765 166.765 165.255 168.627 165.255C170.49 165.255 172 166.765 172 168.627Z" fill="white"/>
</g>
</svg>
