<svg width="40" height="40" viewBox="0 0 40 40" fill="none" xmlns="http://www.w3.org/2000/svg">
<path d="M4.58332 8.33313C4.41768 8.33079 4.25323 8.36139 4.09952 8.42316C3.94581 8.48493 3.80591 8.57663 3.68795 8.69293C3.56998 8.80924 3.47631 8.94783 3.41238 9.10065C3.34845 9.25347 3.31552 9.41748 3.31552 9.58313C3.31552 9.74879 3.34845 9.91279 3.41238 10.0656C3.47631 10.2184 3.56998 10.357 3.68795 10.4733C3.80591 10.5896 3.94581 10.6813 4.09952 10.7431C4.25323 10.8049 4.41768 10.8355 4.58332 10.8331H28.75C28.9156 10.8355 29.0801 10.8049 29.2338 10.7431C29.3875 10.6813 29.5274 10.5896 29.6454 10.4733C29.7633 10.357 29.857 10.2184 29.9209 10.0656C29.9849 9.91279 30.0178 9.74879 30.0178 9.58313C30.0178 9.41748 29.9849 9.25347 29.9209 9.10065C29.857 8.94783 29.7633 8.80924 29.6454 8.69293C29.5274 8.57663 29.3875 8.48493 29.2338 8.42316C29.0801 8.36139 28.9156 8.33079 28.75 8.33313H4.58332ZM4.58332 19.1665C4.41768 19.1641 4.25323 19.1947 4.09952 19.2565C3.94581 19.3183 3.80591 19.41 3.68795 19.5263C3.56998 19.6426 3.47631 19.7812 3.41238 19.934C3.34845 20.0868 3.31552 20.2508 3.31552 20.4165C3.31552 20.5821 3.34845 20.7461 3.41238 20.8989C3.47631 21.0518 3.56998 21.1904 3.68795 21.3067C3.80591 21.423 3.94581 21.5147 4.09952 21.5764C4.25323 21.6382 4.41768 21.6688 4.58332 21.6665H35.4167C35.5823 21.6688 35.7468 21.6382 35.9005 21.5764C36.0542 21.5147 36.1941 21.423 36.312 21.3067C36.43 21.1904 36.5237 21.0518 36.5876 20.8989C36.6515 20.7461 36.6845 20.5821 36.6845 20.4165C36.6845 20.2508 36.6515 20.0868 36.5876 19.934C36.5237 19.7812 36.43 19.6426 36.312 19.5263C36.1941 19.41 36.0542 19.3183 35.9005 19.2565C35.7468 19.1947 35.5823 19.1641 35.4167 19.1665H4.58332ZM5.41666 29.9998C5.25102 29.9975 5.08656 30.0281 4.93285 30.0898C4.77914 30.1516 4.63924 30.2433 4.52128 30.3596C4.40332 30.4759 4.30965 30.6145 4.24571 30.7673C4.18178 30.9201 4.14885 31.0841 4.14885 31.2498C4.14885 31.4155 4.18178 31.5795 4.24571 31.7323C4.30965 31.8851 4.40332 32.0237 4.52128 32.14C4.63924 32.2563 4.77914 32.348 4.93285 32.4098C5.08656 32.4715 5.25102 32.5021 5.41666 32.4998H22.9167C23.0823 32.5021 23.2468 32.4715 23.4005 32.4098C23.5542 32.348 23.6941 32.2563 23.812 32.14C23.93 32.0237 24.0237 31.8851 24.0876 31.7323C24.1515 31.5795 24.1845 31.4155 24.1845 31.2498C24.1845 31.0841 24.1515 30.9201 24.0876 30.7673C24.0237 30.6145 23.93 30.4759 23.812 30.3596C23.6941 30.2433 23.5542 30.1516 23.4005 30.0898C23.2468 30.0281 23.0823 29.9975 22.9167 29.9998H5.41666Z" fill="url(#paint0_linear_1_450)"/>
<defs>
<linearGradient id="paint0_linear_1_450" x1="20" y1="8.33301" x2="20" y2="32.4999" gradientUnits="userSpaceOnUse">
<stop stop-color="#85C66A"/>
<stop offset="1" stop-color="#02586A"/>
</linearGradient>
</defs>
</svg>
