<svg width="31" height="31" viewBox="0 0 31 31" fill="none" xmlns="http://www.w3.org/2000/svg">
<path d="M22.7186 31.0002C21.5124 30.9912 20.3115 30.8398 19.1408 30.5491C15.0981 29.5737 10.935 27.0993 7.4205 23.5817C3.90595 20.0641 1.4285 15.9003 0.453095 11.8614C-0.573973 7.61281 0.158546 3.97798 2.5134 1.62312L3.18577 0.950748C3.79581 0.341929 4.62247 0 5.48434 0C6.3462 0 7.17286 0.341929 7.7829 0.950748L11.6467 4.81382C12.2559 5.42366 12.5981 6.25039 12.5981 7.11238C12.5981 7.97437 12.2559 8.80111 11.6467 9.41095L9.36437 11.6925C10.4585 13.6125 11.9467 15.534 13.7055 17.2928C15.4643 19.0517 17.3874 20.5406 19.3066 21.6347L21.5882 19.3524C21.89 19.0504 22.2483 18.8109 22.6427 18.6475C23.0371 18.4841 23.4598 18.4 23.8867 18.4C24.3136 18.4 24.7364 18.4841 25.1308 18.6475C25.5251 18.8109 25.8835 19.0504 26.1853 19.3524L30.0484 23.2154C30.6577 23.8251 31 24.6517 31 25.5136C31 26.3755 30.6577 27.2022 30.0484 27.8118L29.3752 28.4842C27.7151 30.1474 25.4173 31.0002 22.7186 31.0002ZM5.48434 2.31169C5.36122 2.31108 5.23923 2.33504 5.12549 2.38218C5.01176 2.42931 4.90857 2.49867 4.82199 2.58619L4.14884 3.25857C2.3854 5.02201 1.87032 7.88499 2.69845 11.3155C3.57516 14.9496 5.83209 18.7255 9.05286 21.9455C12.2736 25.1655 16.0488 27.4201 19.6836 28.2999C23.1149 29.128 25.9763 28.6129 27.7398 26.8495L28.4121 26.1771C28.5878 26.0013 28.6865 25.7629 28.6865 25.5144C28.6865 25.2658 28.5878 25.0275 28.4121 24.8517L24.5499 20.9886C24.374 20.8129 24.1357 20.7142 23.8871 20.7142C23.6386 20.7142 23.4002 20.8129 23.2244 20.9886L20.3321 23.8809C20.1585 24.0545 19.9342 24.1684 19.6917 24.2061C19.4491 24.2438 19.2008 24.2034 18.9827 24.0906C16.6117 22.8646 14.2213 21.0796 12.0701 18.9283C9.91877 16.777 8.13759 14.3882 6.90851 12.0172C6.79563 11.7992 6.75505 11.5509 6.79261 11.3084C6.83018 11.0658 6.94395 10.8414 7.11747 10.6678L10.0105 7.7755C10.1862 7.59969 10.2849 7.36131 10.2849 7.11277C10.2849 6.86422 10.1862 6.62585 10.0105 6.45003L6.14746 2.58619C6.0606 2.49882 5.95725 2.42957 5.84342 2.38245C5.72959 2.33533 5.60753 2.31128 5.48434 2.31169Z" fill="#8F969E"/>
<path d="M23.9538 17.0956C23.6471 17.0956 23.3529 16.9738 23.136 16.7569C22.9191 16.54 22.7972 16.2458 22.7972 15.939C22.795 13.91 21.988 11.9647 20.5533 10.5298C19.1186 9.09501 17.1734 8.28783 15.1443 8.28538C14.8376 8.28538 14.5434 8.16353 14.3265 7.94662C14.1096 7.72971 13.9877 7.43553 13.9877 7.12878C13.9877 6.82202 14.1096 6.52784 14.3265 6.31093C14.5434 6.09402 14.8376 5.97217 15.1443 5.97217C20.6398 5.97217 25.1104 10.4444 25.1104 15.939C25.1104 16.2458 24.9886 16.54 24.7717 16.7569C24.5548 16.9738 24.2606 17.0956 23.9538 17.0956Z" fill="#8F969E"/>
<path d="M28.8424 17.0956C28.5357 17.0956 28.2415 16.9737 28.0246 16.7568C27.8077 16.5399 27.6858 16.2457 27.6858 15.939C27.6858 9.02322 22.057 3.39671 15.1443 3.39671C14.8376 3.39671 14.5434 3.27485 14.3265 3.05795C14.1096 2.84104 13.9877 2.54685 13.9877 2.2401C13.9877 1.93335 14.1096 1.63916 14.3265 1.42226C14.5434 1.20535 14.8376 1.0835 15.1443 1.0835C23.3354 1.0835 29.999 7.74787 29.999 15.939C29.999 16.2457 29.8772 16.5399 29.6603 16.7568C29.4433 16.9737 29.1492 17.0956 28.8424 17.0956Z" fill="#8F969E"/>
</svg>
