<svg width="86" height="86" viewBox="0 0 86 86" fill="none" xmlns="http://www.w3.org/2000/svg">
<circle cx="43" cy="43" r="43" fill="#73AD59"/>
<path d="M60.1402 25.0638L62.2078 27.6484C56.0049 32.6452 52.9034 36.2636 52.9034 38.5035C52.9034 39.7958 54.0234 40.7435 56.2634 41.3465C59.8817 42.2942 61.6909 44.6203 61.6909 48.3248C61.6909 50.5648 60.8725 52.4601 59.2356 54.0108C57.5126 55.4754 55.5742 56.2077 53.4204 56.2077C51.7835 56.2077 49.9743 55.4754 47.9928 54.0108C46.0975 52.2017 45.1498 49.6171 45.1498 46.2572C45.1498 42.4665 46.1405 38.8912 48.122 35.5313C50.4481 31.6545 54.4542 28.1653 60.1402 25.0638ZM36.3623 25.0638L38.4299 27.6484C32.227 32.6452 29.1255 36.2636 29.1255 38.5035C29.1255 39.7958 30.2024 40.7435 32.3562 41.3465C36.0608 42.2942 37.913 44.6203 37.913 48.3248C37.913 50.5648 37.1377 52.4601 35.5869 54.0108C33.6916 55.4754 31.7101 56.2077 29.6425 56.2077C27.9194 56.2077 26.1102 55.4754 24.2149 54.0108C22.3196 52.2017 21.3719 49.6171 21.3719 46.2572C21.3719 42.4665 22.3626 38.8912 24.3441 35.5313C26.6702 31.6545 30.6763 28.1653 36.3623 25.0638Z" fill="white"/>
</svg>
