<svg width="303" height="231" viewBox="0 0 303 231" fill="none" xmlns="http://www.w3.org/2000/svg">
<path d="M287.658 0L303 19.1701C256.975 56.2324 233.962 83.0705 233.962 99.6846C233.962 109.27 242.272 116.299 258.892 120.772C285.741 127.801 299.165 145.054 299.165 172.531C299.165 189.145 293.092 203.203 280.946 214.705C268.161 225.568 253.778 231 237.797 231C225.652 231 212.228 225.568 197.525 214.705C183.462 201.286 176.43 182.116 176.43 157.195C176.43 129.079 183.782 102.56 198.484 77.639C215.744 48.8838 245.468 23.0041 287.658 0ZM111.228 0L126.57 19.1701C80.5443 56.2324 57.5316 83.0705 57.5316 99.6846C57.5316 109.27 65.5221 116.299 81.5032 120.772C108.991 127.801 122.734 145.054 122.734 172.531C122.734 189.145 116.981 203.203 105.475 214.705C91.4114 225.568 76.7089 231 61.3671 231C48.5823 231 35.1582 225.568 21.0949 214.705C7.03164 201.286 0 182.116 0 157.195C0 129.079 7.35127 102.56 22.0538 77.639C39.3133 48.8838 69.038 23.0041 111.228 0Z" fill="white"/>
</svg>
