<svg width="47" height="22" viewBox="0 0 47 22" fill="none" xmlns="http://www.w3.org/2000/svg">
<path d="M19.3226 12.216V17H17.7786V5.536H21.0186C21.7439 5.536 22.3706 5.61067 22.8986 5.76C23.4266 5.904 23.8612 6.11467 24.2026 6.392C24.5492 6.66933 24.8052 7.00533 24.9706 7.4C25.1359 7.78933 25.2186 8.22667 25.2186 8.712C25.2186 9.11733 25.1546 9.496 25.0266 9.848C24.8986 10.2 24.7119 10.5173 24.4666 10.8C24.2266 11.0773 23.9306 11.3147 23.5786 11.512C23.2319 11.7093 22.8372 11.8587 22.3946 11.96C22.5866 12.072 22.7572 12.2347 22.9066 12.448L26.2506 17H24.8746C24.5919 17 24.3839 16.8907 24.2506 16.672L21.2746 12.576C21.1839 12.448 21.0852 12.3573 20.9786 12.304C20.8719 12.2453 20.7119 12.216 20.4986 12.216H19.3226ZM19.3226 11.088H20.9466C21.3999 11.088 21.7972 11.0347 22.1386 10.928C22.4852 10.816 22.7732 10.6613 23.0026 10.464C23.2372 10.2613 23.4132 10.0213 23.5306 9.744C23.6479 9.46667 23.7066 9.16 23.7066 8.824C23.7066 8.14133 23.4799 7.62667 23.0266 7.28C22.5786 6.93333 21.9092 6.76 21.0186 6.76H19.3226V11.088ZM34.9794 5.536V6.8H29.4754V10.608H33.9314V11.824H29.4754V15.736H34.9794V17H27.9154V5.536H34.9794ZM45.2923 14.632C45.3776 14.632 45.455 14.6667 45.5243 14.736L46.1323 15.4C45.663 15.944 45.0923 16.368 44.4203 16.672C43.7536 16.976 42.9483 17.128 42.0043 17.128C41.1776 17.128 40.4283 16.9867 39.7563 16.704C39.0843 16.416 38.511 16.016 38.0363 15.504C37.5616 14.9867 37.1936 14.368 36.9323 13.648C36.671 12.928 36.5403 12.136 36.5403 11.272C36.5403 10.408 36.679 9.616 36.9563 8.896C37.239 8.176 37.6336 7.55733 38.1403 7.04C38.647 6.52267 39.2523 6.12267 39.9563 5.84C40.6656 5.552 41.447 5.408 42.3003 5.408C43.143 5.408 43.8683 5.53867 44.4763 5.8C45.0896 6.06133 45.6336 6.416 46.1083 6.864L45.6043 7.576C45.567 7.62933 45.5243 7.67467 45.4763 7.712C45.4283 7.744 45.359 7.76 45.2683 7.76C45.199 7.76 45.1243 7.736 45.0443 7.688C44.9696 7.63467 44.879 7.57067 44.7723 7.496C44.6656 7.42133 44.5403 7.34133 44.3963 7.256C44.2523 7.17067 44.0816 7.09067 43.8843 7.016C43.687 6.94133 43.4576 6.88 43.1963 6.832C42.935 6.77867 42.6336 6.752 42.2923 6.752C41.679 6.752 41.1163 6.85867 40.6043 7.072C40.0976 7.28 39.6603 7.57867 39.2923 7.968C38.9243 8.35733 38.6363 8.832 38.4283 9.392C38.2256 9.952 38.1243 10.5787 38.1243 11.272C38.1243 11.9867 38.2256 12.624 38.4283 13.184C38.6363 13.744 38.9163 14.2187 39.2683 14.608C39.6256 14.992 40.047 15.2853 40.5323 15.488C41.0176 15.6907 41.5403 15.792 42.1003 15.792C42.4416 15.792 42.7483 15.7733 43.0203 15.736C43.2923 15.6933 43.543 15.6293 43.7723 15.544C44.007 15.4587 44.223 15.352 44.4203 15.224C44.623 15.0907 44.8256 14.9333 45.0283 14.752C45.119 14.672 45.207 14.632 45.2923 14.632Z" fill="white"/>
<ellipse cx="6.5" cy="12" rx="6.5" ry="7" fill="#D21717"/>
</svg>
