<svg width="1920" height="958" viewBox="0 0 1920 958" fill="none" xmlns="http://www.w3.org/2000/svg">
<mask id="mask0_1_504" style="mask-type:alpha" maskUnits="userSpaceOnUse" x="-99" y="0" width="2072" height="958">
<path d="M403 72L273 16L-25 38L-71 850.523L-99 958H1973L1921 875.927L1733 768.45H1535H1485H1345L1289 684.422H1229H1043L993 120L851 0L737 120L689 72L659 106L519 72H403Z" fill="#D9D9D9"/>
</mask>
<g mask="url(#mask0_1_504)">
<rect x="-21" y="486.001" width="78" height="640" fill="#F8F8F8"/>
<rect x="1065" y="614" width="78" height="490" fill="url(#paint0_linear_1_504)"/>
<rect x="1209" y="614" width="78" height="504" fill="url(#paint1_linear_1_504)"/>
<rect x="1353" y="636" width="78" height="490" fill="url(#paint2_linear_1_504)"/>
<rect x="1477" y="642" width="78" height="422" fill="url(#paint3_linear_1_504)"/>
<rect x="1615" y="683" width="78" height="373" fill="url(#paint4_linear_1_504)"/>
<rect x="93" y="55.001" width="78" height="1071" fill="url(#paint5_linear_1_504)"/>
<rect x="208" y="120.001" width="79" height="1006" fill="url(#paint6_linear_1_504)"/>
<rect x="437" y="25" width="78" height="1101" fill="url(#paint7_linear_1_504)"/>
<rect x="552" y="134.001" width="79" height="992" fill="url(#paint8_linear_1_504)"/>
<rect x="666.679" y="212.831" width="78.3214" height="930.956" fill="url(#paint9_linear_1_504)"/>
<rect x="782" y="146" width="78" height="1012" fill="url(#paint10_linear_1_504)"/>
<rect x="896" y="120" width="79" height="1038" fill="url(#paint11_linear_1_504)"/>
<rect x="323" y="106" width="78" height="1020" fill="url(#paint12_linear_1_504)"/>
</g>
<defs>
<linearGradient id="paint0_linear_1_504" x1="1104" y1="614" x2="1104" y2="1104" gradientUnits="userSpaceOnUse">
<stop stop-color="#E4E4E4" stop-opacity="0.17"/>
<stop offset="1" stop-color="#F7FAFB"/>
</linearGradient>
<linearGradient id="paint1_linear_1_504" x1="1248" y1="614" x2="1248" y2="1118" gradientUnits="userSpaceOnUse">
<stop stop-color="#E4E4E4" stop-opacity="0.17"/>
<stop offset="1" stop-color="#F7FAFB"/>
</linearGradient>
<linearGradient id="paint2_linear_1_504" x1="1392" y1="636" x2="1392" y2="1126" gradientUnits="userSpaceOnUse">
<stop stop-color="#E4E4E4" stop-opacity="0.17"/>
<stop offset="1" stop-color="#F7FAFB"/>
</linearGradient>
<linearGradient id="paint3_linear_1_504" x1="1516" y1="642" x2="1516" y2="1064" gradientUnits="userSpaceOnUse">
<stop stop-color="#E4E4E4" stop-opacity="0.17"/>
<stop offset="1" stop-color="#F7FAFB"/>
</linearGradient>
<linearGradient id="paint4_linear_1_504" x1="1654" y1="683" x2="1654" y2="1056" gradientUnits="userSpaceOnUse">
<stop stop-color="#E4E4E4" stop-opacity="0.17"/>
<stop offset="1" stop-color="#F7FAFB"/>
</linearGradient>
<linearGradient id="paint5_linear_1_504" x1="132" y1="55.001" x2="132" y2="1126" gradientUnits="userSpaceOnUse">
<stop stop-color="#E4E4E4" stop-opacity="0.17"/>
<stop offset="1" stop-color="#F7FAFB"/>
</linearGradient>
<linearGradient id="paint6_linear_1_504" x1="247.5" y1="120.001" x2="247.5" y2="1126" gradientUnits="userSpaceOnUse">
<stop stop-color="#E4E4E4" stop-opacity="0.17"/>
<stop offset="1" stop-color="#F7FAFB"/>
</linearGradient>
<linearGradient id="paint7_linear_1_504" x1="476" y1="25" x2="476" y2="1126" gradientUnits="userSpaceOnUse">
<stop stop-color="#E4E4E4" stop-opacity="0.17"/>
<stop offset="1" stop-color="#F7FAFB"/>
</linearGradient>
<linearGradient id="paint8_linear_1_504" x1="591.5" y1="134.001" x2="591.5" y2="1126" gradientUnits="userSpaceOnUse">
<stop stop-color="#E4E4E4" stop-opacity="0.17"/>
<stop offset="1" stop-color="#F7FAFB"/>
</linearGradient>
<linearGradient id="paint9_linear_1_504" x1="705.839" y1="212.831" x2="705.839" y2="1143.79" gradientUnits="userSpaceOnUse">
<stop stop-color="#E4E4E4" stop-opacity="0.17"/>
<stop offset="1" stop-color="#F7FAFB"/>
</linearGradient>
<linearGradient id="paint10_linear_1_504" x1="821" y1="146" x2="821" y2="1158" gradientUnits="userSpaceOnUse">
<stop stop-color="#E4E4E4" stop-opacity="0.17"/>
<stop offset="1" stop-color="#F7FAFB"/>
</linearGradient>
<linearGradient id="paint11_linear_1_504" x1="935.5" y1="120" x2="935.5" y2="1158" gradientUnits="userSpaceOnUse">
<stop stop-color="#E4E4E4" stop-opacity="0.17"/>
<stop offset="1" stop-color="#F7FAFB"/>
</linearGradient>
<linearGradient id="paint12_linear_1_504" x1="362" y1="106" x2="362" y2="1126" gradientUnits="userSpaceOnUse">
<stop stop-color="#E4E4E4" stop-opacity="0.17"/>
<stop offset="1" stop-color="#F7FAFB"/>
</linearGradient>
</defs>
</svg>
